# xmcd CD database file
#
# Track frame offsets:
#	150
#	22287
#	41752
#
# Disc length: 682 seconds
#
# Revision: 0
# Processed by: cddbd v1.5PL3 Copyright (c) Steve Scherf et al.
# Submitted via: CDex 1.50beta10
#
DISCID=2402a803
DTITLE=GRAPEVINE - ふれていたい
DYEAR=2000
DGENRE=Rock
TTITLE0=ふれていたい
TTITLE1=その日、三十度以上
TTITLE2=HEAD
EXTD=YEAR: 2000
EXTT0=
EXTT1=
EXTT2=
PLAYORDER=
